<mxfile host="app.diagrams.net" modified="2024-07-15T12:42:45.743Z" agent="Mozilla/5.0 (Macintosh; Intel Mac OS X 10_15_7) AppleWebKit/537.36 (KHTML, like Gecko) Chrome/126.0.0.0 Safari/537.36" etag="u3c00XzulN-f5eE2N8f2" version="24.6.5" type="github">
  <diagram id="ue3rD2GwHf_kvvI-VKZf" name="Page-2">
    <mxGraphModel dx="1026" dy="590" grid="1" gridSize="10" guides="1" tooltips="1" connect="1" arrows="1" fold="1" page="1" pageScale="1" pageWidth="827" pageHeight="1169" math="0" shadow="0">
      <root>
        <mxCell id="0" />
        <mxCell id="1" parent="0" />
        <mxCell id="gUebGFae4fd3DCatvjaA-18" value="Yes" style="edgeStyle=orthogonalEdgeStyle;rounded=0;orthogonalLoop=1;jettySize=auto;html=1;strokeWidth=3;fontSize=19;" edge="1" parent="1" source="gUebGFae4fd3DCatvjaA-11" target="gUebGFae4fd3DCatvjaA-17">
          <mxGeometry relative="1" as="geometry" />
        </mxCell>
        <mxCell id="gUebGFae4fd3DCatvjaA-35" value="No" style="edgeStyle=orthogonalEdgeStyle;rounded=0;orthogonalLoop=1;jettySize=auto;html=1;entryX=0;entryY=0.5;entryDx=0;entryDy=0;strokeWidth=3;fontSize=19;fillColor=#e1d5e7;strokeColor=#9673a6;" edge="1" parent="1" source="gUebGFae4fd3DCatvjaA-11" target="gUebGFae4fd3DCatvjaA-34">
          <mxGeometry x="0.0991" relative="1" as="geometry">
            <mxPoint as="offset" />
          </mxGeometry>
        </mxCell>
        <mxCell id="gUebGFae4fd3DCatvjaA-11" value="A new or update field on an&lt;div&gt;already sent proto&lt;/div&gt;" style="text;html=1;align=center;verticalAlign=middle;resizable=0;points=[];autosize=1;strokeColor=#6c8ebf;fillColor=#dae8fc;" vertex="1" parent="1">
          <mxGeometry x="329" y="80" width="170" height="40" as="geometry" />
        </mxCell>
        <mxCell id="gUebGFae4fd3DCatvjaA-20" value="No" style="edgeStyle=orthogonalEdgeStyle;rounded=0;orthogonalLoop=1;jettySize=auto;html=1;fillColor=#d5e8d4;strokeColor=#82b366;fontSize=19;strokeWidth=4;" edge="1" parent="1" source="gUebGFae4fd3DCatvjaA-17" target="gUebGFae4fd3DCatvjaA-19">
          <mxGeometry relative="1" as="geometry" />
        </mxCell>
        <mxCell id="gUebGFae4fd3DCatvjaA-22" value="Yes" style="edgeStyle=orthogonalEdgeStyle;rounded=0;orthogonalLoop=1;jettySize=auto;html=1;strokeWidth=4;fontSize=19;" edge="1" parent="1" source="gUebGFae4fd3DCatvjaA-17" target="gUebGFae4fd3DCatvjaA-21">
          <mxGeometry relative="1" as="geometry" />
        </mxCell>
        <mxCell id="gUebGFae4fd3DCatvjaA-17" value="Is it a field that needs to be aggregated?" style="whiteSpace=wrap;html=1;fillColor=#dae8fc;strokeColor=#6c8ebf;gradientColor=none;resizable=0;autosize=1;" vertex="1" parent="1">
          <mxGeometry x="294" y="215" width="240" height="30" as="geometry" />
        </mxCell>
        <mxCell id="gUebGFae4fd3DCatvjaA-19" value="&lt;font style=&quot;font-size: 14px;&quot;&gt;Unit&lt;/font&gt;&lt;div style=&quot;font-size: 14px;&quot;&gt;&lt;font style=&quot;font-size: 14px;&quot;&gt;Test&lt;/font&gt;&lt;/div&gt;" style="rhombus;whiteSpace=wrap;html=1;fillColor=#d5e8d4;strokeColor=#82b366;resizable=0;autosize=1;fontSize=14;" vertex="1" parent="1">
          <mxGeometry x="160" y="205" width="50" height="50" as="geometry" />
        </mxCell>
        <mxCell id="gUebGFae4fd3DCatvjaA-23" value="Yes" style="edgeStyle=orthogonalEdgeStyle;rounded=0;orthogonalLoop=1;jettySize=auto;html=1;entryX=0.5;entryY=1;entryDx=0;entryDy=0;strokeWidth=3;fillColor=#d5e8d4;strokeColor=#82b366;fontSize=19;" edge="1" parent="1" source="gUebGFae4fd3DCatvjaA-21" target="gUebGFae4fd3DCatvjaA-19">
          <mxGeometry relative="1" as="geometry" />
        </mxCell>
        <mxCell id="gUebGFae4fd3DCatvjaA-25" value="No" style="edgeStyle=orthogonalEdgeStyle;rounded=0;orthogonalLoop=1;jettySize=auto;html=1;strokeWidth=3;fillColor=#f8cecc;strokeColor=#b85450;fontSize=19;" edge="1" parent="1" source="gUebGFae4fd3DCatvjaA-21" target="gUebGFae4fd3DCatvjaA-24">
          <mxGeometry relative="1" as="geometry" />
        </mxCell>
        <mxCell id="gUebGFae4fd3DCatvjaA-21" value="Is the aggregation possible or realistic locally?" style="whiteSpace=wrap;html=1;fillColor=#dae8fc;strokeColor=#6c8ebf;gradientColor=none;resizable=0;autosize=1;" vertex="1" parent="1">
          <mxGeometry x="279" y="335" width="270" height="30" as="geometry" />
        </mxCell>
        <mxCell id="gUebGFae4fd3DCatvjaA-24" value="NQL&lt;div&gt;Test&lt;/div&gt;" style="ellipse;whiteSpace=wrap;html=1;fillColor=#f8cecc;strokeColor=#b85450;resizable=0;autosize=1;" vertex="1" parent="1">
          <mxGeometry x="630" y="330" width="50" height="40" as="geometry" />
        </mxCell>
        <mxCell id="gUebGFae4fd3DCatvjaA-31" value="NQL&lt;div&gt;Test&lt;/div&gt;" style="ellipse;whiteSpace=wrap;html=1;fillColor=#f8cecc;strokeColor=#b85450;resizable=0;autosize=1;" vertex="1" parent="1">
          <mxGeometry x="645" y="110" width="50" height="40" as="geometry" />
        </mxCell>
        <mxCell id="gUebGFae4fd3DCatvjaA-32" value="&lt;font style=&quot;font-size: 14px;&quot;&gt;Unit&lt;/font&gt;&lt;div style=&quot;font-size: 14px;&quot;&gt;&lt;font style=&quot;font-size: 14px;&quot;&gt;Test&lt;/font&gt;&lt;/div&gt;" style="rhombus;whiteSpace=wrap;html=1;fillColor=#d5e8d4;strokeColor=#82b366;resizable=0;autosize=1;fontSize=14;" vertex="1" parent="1">
          <mxGeometry x="645" y="50" width="50" height="50" as="geometry" />
        </mxCell>
        <mxCell id="gUebGFae4fd3DCatvjaA-34" value="" style="shape=ext;double=1;whiteSpace=wrap;html=1;aspect=fixed;opacity=20;fillColor=#e1d5e7;strokeColor=#9673a6;" vertex="1" parent="1">
          <mxGeometry x="610" y="40" width="120" height="120" as="geometry" />
        </mxCell>
      </root>
    </mxGraphModel>
  </diagram>
</mxfile>
